<svg xmlns="http://www.w3.org/2000/svg" viewBox="0 0 24 24" fill="#0668e1">
  <path d="M12 2C9.8 2 7.9 2.8 6.6 4.1c-.3.3-.3.8 0 1.1.3.3.8.3 1.1 0C8.8 4 10.3 3.5 12 3.5c3 0 5.5 1.8 6.3 4.3.1.4.5.6.9.5.4-.1.6-.5.5-.9C18.7 4.3 15.6 2 12 2zm-7.4 6.8c-.4-.1-.8.1-.9.5C3.1 11 3.5 13 4.8 14.7c.2.3.6.4.9.2.3-.2.4-.6.2-.9-1-1.4-1.3-3-.9-4.5.1-.4-.1-.8-.5-.9l.1.2zM12 8c-2.2 0-4 1.8-4 4s1.8 4 4 4c1.4 0 2.6-.7 3.3-1.8l3.5 2c.3.2.7.1.9-.3.2-.3.1-.7-.3-.9l-3.5-2c.1-.3.1-.7.1-1 0-2.2-1.8-4-4-4zm0 1.5c1.4 0 2.5 1.1 2.5 2.5s-1.1 2.5-2.5 2.5-2.5-1.1-2.5-2.5S10.6 9.5 12 9.5zM5.5 16.5c-.3-.2-.7-.1-.9.2-1 1.5-1.1 3.3-.3 4.9.2.4.6.5.9.3.4-.2.5-.6.3-.9-.6-1.2-.5-2.6.3-3.7.2-.3.1-.7-.3-.8zm12.8.3c-.3-.2-.7-.1-.9.2-.2.3-.1.7.2.9 1.1.8 1.7 2.1 1.5 3.4-.1.4.2.8.6.8.4.1.8-.2.8-.6.3-1.8-.5-3.5-2-4.5l-.2-.2z"/>
</svg>
