<svg xmlns="http://www.w3.org/2000/svg" viewBox="0 0 24 24" fill="#e94560">
  <path d="M12 2C7 2 3 6 3 11c0 3 1.5 5.5 4 7l-1 4 3.5-2c.8.2 1.6.3 2.5.3 5 0 9-4 9-9s-4-9-9-9zm0 2c3.9 0 7 3.1 7 7s-3.1 7-7 7c-.8 0-1.5-.1-2.2-.4l-.8-.3-2 1.1.6-2.3-.5-.5C5.5 15.1 5 13.1 5 11c0-3.9 3.1-7 7-7z"/>
  <path d="M9 9.5c0-.8.7-1.5 1.5-1.5s1.5.7 1.5 1.5v2c0 .3-.1.5-.3.7l-1.2 1.2-.7-.7 1-1v-2.2c0-.3-.2-.5-.5-.5s-.5.2-.5.5v.5H9v-.5zm3 0c0-.8.7-1.5 1.5-1.5s1.5.7 1.5 1.5v2c0 .3-.1.5-.3.7l-1.2 1.2-.7-.7 1-1v-2.2c0-.3-.2-.5-.5-.5s-.5.2-.5.5v.5h-.8v-.5z" opacity=".8"/>
</svg>
